<svg xmlns="http://www.w3.org/2000/svg" viewBox="0 0 20 20">
<path id="path188" fill='#ffffff' d="M14.26,10.39A3.71,3.71,0,0,1,16,7.28a3.79,3.79,0,0,0-3-1.62c-1.27-.13-2.49.75-3.13.75S8.27,5.68,7.22,5.7a4,4,0,0,0-3.38,2C2.4,10.24,3.47,14,4.87,16c.69,1,1.5,2.11,2.58,2.07s1.43-.67,2.68-.67,1.6.67,2.69.65,1.82-1,2.5-2a8.87,8.87,0,0,0,1.13-2.32,3.6,3.6,0,0,1-2.19-3.3"/>
<path id="path190" fill='#ffffff' d="M12.2,4.32a3.58,3.58,0,0,0,.85-2.61A3.64,3.64,0,0,0,10.65,3a3.43,3.43,0,0,0-.87,2.52A3,3,0,0,0,12.2,4.32"/>
</svg>